<svg width="223" height="67" viewBox="0 0 223 67" fill="none" xmlns="http://www.w3.org/2000/svg">
<path d="M215.066 66.0741H7.81161C3.50523 66.0741 0 62.5589 0 58.2558V7.80665C0 3.50193 3.50523 0 7.81161 0H215.066C219.371 0 223 3.50193 223 7.80665V58.2558C223 62.5589 219.371 66.0741 215.066 66.0741Z" fill="#A6A6A6"/>
<path d="M221.401 58.2576C221.401 61.7529 218.569 64.5842 215.067 64.5842H7.81119C4.31091 64.5842 1.46973 61.7529 1.46973 58.2576V7.80507C1.46973 4.3114 4.31091 1.47021 7.81119 1.47021H215.066C218.569 1.47021 221.399 4.3114 221.399 7.80507L221.401 58.2576Z" fill="#1B1B1B"/>
<path d="M49.7665 32.6804C49.7186 27.3565 54.1258 24.7664 54.3273 24.6458C51.8314 21.0068 47.9627 20.5096 46.6032 20.4699C43.3541 20.128 40.2023 22.4141 38.5472 22.4141C36.859 22.4141 34.3102 20.503 31.5631 20.5591C28.0282 20.6136 24.7212 22.6603 22.9074 25.8384C19.1643 32.3186 21.956 41.8416 25.5421 47.0796C27.336 49.6449 29.4322 52.5092 32.176 52.4085C34.8602 52.2978 35.8629 50.6971 39.1022 50.6971C42.3117 50.6971 43.2533 52.4085 46.0515 52.344C48.9324 52.2978 50.7461 49.7671 52.4772 47.1787C54.5503 44.2384 55.3828 41.3427 55.4159 41.194C55.3482 41.1709 49.8211 39.0615 49.7665 32.6804Z" fill="white"/>
<path d="M44.4807 17.024C45.9244 15.2185 46.9122 12.7622 46.638 10.2695C44.5484 10.362 41.9352 11.7149 40.4303 13.4807C39.0989 15.0368 37.9096 17.5872 38.2169 19.9857C40.5641 20.1608 42.9742 18.8013 44.4807 17.024Z" fill="white"/>
<path d="M88.6132 52.04H84.8619L82.807 45.5829H75.6644L73.7069 52.04H70.0547L77.1312 30.0571H81.502L88.6132 52.04ZM82.1875 42.8738L80.3292 37.1337C80.1326 36.5473 79.7643 35.1663 79.2208 32.9925H79.1547C78.9383 33.9274 78.5898 35.3084 78.1108 37.1337L76.2855 42.8738H82.1875Z" fill="white"/>
<path d="M106.812 43.9194C106.812 46.6152 106.083 48.7461 104.626 50.3104C103.321 51.7029 101.701 52.3983 99.7665 52.3983C97.6785 52.3983 96.1787 51.6484 95.2652 50.1485H95.1991V58.4986H91.6774V41.4069C91.6774 39.7121 91.6328 37.9727 91.5469 36.1887H94.6441L94.8407 38.7012H94.9067C96.0812 36.8081 97.8636 35.8633 100.255 35.8633C102.125 35.8633 103.686 36.6017 104.935 38.0801C106.187 39.5601 106.812 41.506 106.812 43.9194ZM103.224 44.0482C103.224 42.5054 102.877 41.2335 102.18 40.2324C101.418 39.1885 100.396 38.6665 99.114 38.6665C98.2451 38.6665 97.4555 38.9572 96.7502 39.5304C96.0432 40.1085 95.5807 40.8634 95.3643 41.7984C95.2553 42.2345 95.2008 42.5913 95.2008 42.8721V45.5151C95.2008 46.668 95.5543 47.641 96.2613 48.4355C96.9683 49.2301 97.8867 49.6265 99.0165 49.6265C100.343 49.6265 101.375 49.1144 102.114 48.0936C102.854 47.0711 103.224 45.7232 103.224 44.0482Z" fill="white"/>
<path d="M125.043 43.9194C125.043 46.6152 124.315 48.7461 122.856 50.3104C121.553 51.7029 119.933 52.3983 117.998 52.3983C115.91 52.3983 114.41 51.6484 113.499 50.1485H113.433V58.4986H109.911V41.4069C109.911 39.7121 109.866 37.9727 109.78 36.1887H112.877L113.074 38.7012H113.14C114.313 36.8081 116.095 35.8633 118.489 35.8633C120.357 35.8633 121.918 36.6017 123.17 38.0801C124.417 39.5601 125.043 41.506 125.043 43.9194ZM121.456 44.0482C121.456 42.5054 121.107 41.2335 120.41 40.2324C119.648 39.1885 118.629 38.6665 117.346 38.6665C116.475 38.6665 115.687 38.9572 114.98 39.5304C114.273 40.1085 113.812 40.8634 113.596 41.7984C113.489 42.2345 113.433 42.5913 113.433 42.8721V45.5151C113.433 46.668 113.786 47.641 114.49 48.4355C115.197 49.2284 116.115 49.6265 117.248 49.6265C118.575 49.6265 119.607 49.1144 120.346 48.0936C121.086 47.0711 121.456 45.7232 121.456 44.0482Z" fill="white"/>
<path d="M145.427 45.8751C145.427 47.745 144.778 49.2663 143.474 50.4408C142.042 51.7243 140.048 52.3652 137.486 52.3652C135.121 52.3652 133.225 51.9093 131.789 50.9958L132.605 48.0605C134.151 48.9954 135.848 49.4646 137.696 49.4646C139.023 49.4646 140.055 49.1639 140.797 48.566C141.535 47.968 141.903 47.1652 141.903 46.1642C141.903 45.2722 141.599 44.5206 140.99 43.911C140.384 43.3015 139.371 42.7349 137.957 42.2113C134.108 40.7758 132.186 38.673 132.186 35.9078C132.186 34.1007 132.859 32.619 134.209 31.466C135.554 30.3114 137.348 29.7349 139.591 29.7349C141.591 29.7349 143.253 30.0834 144.579 30.7788L143.699 33.6498C142.46 32.9758 141.059 32.6388 139.492 32.6388C138.253 32.6388 137.285 32.9444 136.591 33.5523C136.005 34.0958 135.711 34.7581 135.711 35.5428C135.711 36.4116 136.046 37.1302 136.72 37.6951C137.306 38.2171 138.372 38.7821 139.918 39.3916C141.809 40.1531 143.198 41.0434 144.092 42.0643C144.982 43.0818 145.427 44.3554 145.427 45.8751Z" fill="white"/>
<path d="M157.071 38.8318H153.19V46.5278C153.19 48.4852 153.873 49.4631 155.244 49.4631C155.874 49.4631 156.396 49.4086 156.809 49.2996L156.906 51.9739C156.212 52.2333 155.299 52.3638 154.167 52.3638C152.777 52.3638 151.69 51.9392 150.905 51.0918C150.124 50.2428 149.731 48.8189 149.731 46.8185V38.8285H147.418V36.1855H149.731V33.2832L153.19 32.2393V36.1855H157.071V38.8318Z" fill="white"/>
<path d="M174.585 43.9836C174.585 46.4201 173.888 48.4205 172.497 49.9848C171.039 51.5953 169.103 52.3981 166.689 52.3981C164.364 52.3981 162.512 51.6267 161.131 50.0839C159.75 48.5411 159.06 46.5935 159.06 44.2462C159.06 41.7899 159.77 39.778 161.195 38.2137C162.618 36.6477 164.537 35.8647 166.95 35.8647C169.276 35.8647 171.148 36.6362 172.56 38.1806C173.911 39.6789 174.585 41.6132 174.585 43.9836ZM170.931 44.0976C170.931 42.6357 170.619 41.3819 169.987 40.3363C169.248 39.071 168.193 38.44 166.825 38.44C165.409 38.44 164.334 39.0726 163.596 40.3363C162.963 41.3836 162.651 42.6572 162.651 44.1637C162.651 45.6255 162.963 46.8793 163.596 47.9233C164.357 49.1886 165.421 49.8196 166.794 49.8196C168.138 49.8196 169.194 49.1754 169.955 47.8902C170.604 46.8248 170.931 45.5578 170.931 44.0976Z" fill="white"/>
<path d="M186.033 39.2859C185.685 39.2215 185.313 39.1885 184.923 39.1885C183.684 39.1885 182.726 39.6559 182.052 40.5925C181.466 41.4185 181.172 42.4624 181.172 43.7228V52.0399H177.652L177.685 41.1806C177.685 39.3536 177.64 37.6902 177.553 36.1903H180.62L180.749 39.2231H180.847C181.218 38.1808 181.805 37.3417 182.607 36.7123C183.392 36.1457 184.239 35.8633 185.153 35.8633C185.478 35.8633 185.772 35.8864 186.033 35.9277V39.2859Z" fill="white"/>
<path d="M201.783 43.3643C201.783 43.9953 201.742 44.5272 201.654 44.9616H191.089C191.13 46.5276 191.641 47.7252 192.622 48.5511C193.512 49.2895 194.664 49.6595 196.078 49.6595C197.642 49.6595 199.069 49.4101 200.353 48.9096L200.905 51.3543C199.405 52.0084 197.634 52.3338 195.59 52.3338C193.133 52.3338 191.203 51.6103 189.799 50.165C188.398 48.7196 187.696 46.7787 187.696 44.3438C187.696 41.9536 188.349 39.9631 189.655 38.3757C191.023 36.6809 192.872 35.8335 195.197 35.8335C197.482 35.8335 199.211 36.6809 200.386 38.3757C201.316 39.722 201.783 41.387 201.783 43.3643ZM198.425 42.4508C198.448 41.4068 198.219 40.5049 197.741 39.7434C197.132 38.7639 196.195 38.2749 194.935 38.2749C193.783 38.2749 192.847 38.7523 192.132 39.7104C191.545 40.4719 191.197 41.3854 191.089 42.4492H198.425V42.4508Z" fill="white"/>
<path d="M81.0235 16.5334C81.0235 18.4776 80.4404 19.9412 79.2759 20.924C78.1972 21.8309 76.6643 22.2851 74.6788 22.2851C73.6943 22.2851 72.8518 22.2422 72.1465 22.1563V11.5332C73.0666 11.3846 74.0577 11.3086 75.1281 11.3086C77.0194 11.3086 78.445 11.7199 79.4064 12.5425C80.4834 13.4725 81.0235 14.8023 81.0235 16.5334ZM79.1982 16.5813C79.1982 15.3209 78.8646 14.3546 78.1972 13.6807C77.5299 13.0083 76.5553 12.6714 75.2718 12.6714C74.7267 12.6714 74.2625 12.7077 73.8776 12.7837V20.8596C74.0907 20.8926 74.4806 20.9075 75.0471 20.9075C76.3719 20.9075 77.3944 20.5391 78.1146 19.8024C78.8348 19.0657 79.1982 17.992 79.1982 16.5813Z" fill="white"/>
<path d="M90.7018 18.2317C90.7018 19.4293 90.3599 20.4105 89.676 21.1803C88.9591 21.9715 88.0093 22.3663 86.8233 22.3663C85.6802 22.3663 84.77 21.988 84.0911 21.2282C83.4138 20.47 83.0752 19.5135 83.0752 18.3606C83.0752 17.1547 83.4237 16.1652 84.1241 15.3971C84.8245 14.629 85.7661 14.2441 86.9521 14.2441C88.0952 14.2441 89.0136 14.6224 89.709 15.3806C90.3698 16.1173 90.7018 17.0688 90.7018 18.2317ZM88.9062 18.2879C88.9062 17.5693 88.751 16.9532 88.4421 16.4395C88.0787 15.8184 87.5616 15.5078 86.8893 15.5078C86.1939 15.5078 85.6653 15.8184 85.3019 16.4395C84.9913 16.9532 84.8377 17.5792 84.8377 18.3193C84.8377 19.0378 84.993 19.654 85.3019 20.1677C85.6769 20.7888 86.1988 21.0993 86.8728 21.0993C87.5335 21.0993 88.0522 20.7838 88.4255 20.1512C88.746 19.6275 88.9062 19.0064 88.9062 18.2879Z" fill="white"/>
<path d="M103.679 14.4023L101.242 22.1892H99.6564L98.6471 18.8078C98.3911 17.9637 98.1829 17.1246 98.021 16.2921H97.9896C97.8393 17.1477 97.6312 17.9852 97.3636 18.8078L96.2915 22.1892H94.6876L92.3965 14.4023H94.1755L95.056 18.1041C95.269 18.9796 95.4442 19.8138 95.5846 20.6034H95.6159C95.7448 19.9526 95.9579 19.1233 96.2585 18.1207L97.3636 14.404H98.7743L99.8331 18.0414C100.089 18.9284 100.297 19.7824 100.458 20.605H100.505C100.623 19.8039 100.799 18.9499 101.034 18.0414L101.979 14.404H103.679V14.4023Z" fill="white"/>
<path d="M112.654 22.1891H110.922V17.7291C110.922 16.3548 110.4 15.6676 109.353 15.6676C108.839 15.6676 108.425 15.8559 108.103 16.2342C107.784 16.6125 107.622 17.0585 107.622 17.5689V22.1875H105.891V16.6273C105.891 15.9435 105.869 15.2018 105.828 14.399H107.349L107.43 15.6164H107.478C107.68 15.2381 107.98 14.9259 108.375 14.6765C108.844 14.3858 109.37 14.2388 109.945 14.2388C110.671 14.2388 111.276 14.4733 111.757 14.9441C112.355 15.5206 112.654 16.3812 112.654 17.5243V22.1891Z" fill="white"/>
<path d="M117.427 22.1894H115.697V10.8296H117.427V22.1894Z" fill="white"/>
<path d="M127.619 18.2317C127.619 19.4293 127.277 20.4105 126.593 21.1803C125.876 21.9715 124.925 22.3663 123.74 22.3663C122.596 22.3663 121.685 21.988 121.008 21.2282C120.331 20.47 119.992 19.5135 119.992 18.3606C119.992 17.1547 120.341 16.1652 121.041 15.3971C121.742 14.629 122.683 14.2441 123.867 14.2441C125.012 14.2441 125.929 14.6224 126.626 15.3806C127.287 16.1173 127.619 17.0688 127.619 18.2317ZM125.822 18.2879C125.822 17.5693 125.666 16.9532 125.357 16.4395C124.996 15.8184 124.477 15.5078 123.806 15.5078C123.109 15.5078 122.581 15.8184 122.219 16.4395C121.908 16.9532 121.755 17.5792 121.755 18.3193C121.755 19.0378 121.91 19.654 122.219 20.1677C122.594 20.7888 123.116 21.0993 123.79 21.0993C124.451 21.0993 124.968 20.7838 125.341 20.1512C125.663 19.6275 125.822 19.0064 125.822 18.2879Z" fill="white"/>
<path d="M135.997 22.1895H134.443L134.314 21.2926H134.266C133.734 22.0078 132.976 22.3663 131.991 22.3663C131.256 22.3663 130.662 22.1301 130.214 21.661C129.808 21.2348 129.604 20.7045 129.604 20.0752C129.604 19.1237 130.001 18.3985 130.799 17.8964C131.595 17.3942 132.715 17.1481 134.157 17.1597V17.0143C134.157 15.9885 133.618 15.4764 132.54 15.4764C131.772 15.4764 131.094 15.6697 130.51 16.0529L130.158 14.9164C130.881 14.4688 131.775 14.2441 132.829 14.2441C134.864 14.2441 135.885 15.3178 135.885 17.4653V20.3329C135.885 21.1109 135.923 21.7303 135.997 22.1895ZM134.2 19.5135V18.3127C132.29 18.2796 131.336 18.8033 131.336 19.8819C131.336 20.2883 131.445 20.5922 131.668 20.7954C131.891 20.9986 132.175 21.0993 132.513 21.0993C132.893 21.0993 133.248 20.9787 133.572 20.7392C133.898 20.4981 134.098 20.1925 134.172 19.8175C134.19 19.7332 134.2 19.6308 134.2 19.5135Z" fill="white"/>
<path d="M145.834 22.1894H144.297L144.217 20.9389H144.169C143.678 21.8904 142.842 22.3661 141.668 22.3661C140.729 22.3661 139.948 21.9978 139.329 21.261C138.709 20.5243 138.4 19.5679 138.4 18.3934C138.4 17.1331 138.736 16.1122 139.41 15.3325C140.062 14.6057 140.862 14.2423 141.813 14.2423C142.859 14.2423 143.591 14.5942 144.007 15.2995H144.04V10.8296H145.773V20.0915C145.773 20.8497 145.792 21.5485 145.834 22.1894ZM144.04 18.9055V17.6071C144.04 17.3825 144.023 17.2008 143.992 17.062C143.894 16.6458 143.685 16.2956 143.366 16.0131C143.044 15.7306 142.656 15.5886 142.208 15.5886C141.562 15.5886 141.057 15.8446 140.685 16.3583C140.317 16.8721 140.13 17.5278 140.13 18.329C140.13 19.0988 140.307 19.7232 140.662 20.2038C141.037 20.7159 141.542 20.972 142.175 20.972C142.743 20.972 143.197 20.7589 143.543 20.331C143.876 19.9362 144.04 19.4605 144.04 18.9055Z" fill="white"/>
<path d="M160.639 18.2317C160.639 19.4293 160.297 20.4105 159.613 21.1803C158.897 21.9715 157.948 22.3663 156.761 22.3663C155.619 22.3663 154.709 21.988 154.029 21.2282C153.351 20.47 153.013 19.5135 153.013 18.3606C153.013 17.1547 153.361 16.1652 154.062 15.3971C154.762 14.629 155.704 14.2441 156.891 14.2441C158.033 14.2441 158.953 14.6224 159.647 15.3806C160.307 16.1173 160.639 17.0688 160.639 18.2317ZM158.845 18.2879C158.845 17.5693 158.69 16.9532 158.381 16.4395C158.016 15.8184 157.501 15.5078 156.827 15.5078C156.133 15.5078 155.604 15.8184 155.239 16.4395C154.929 16.9532 154.775 17.5792 154.775 18.3193C154.775 19.0378 154.93 19.654 155.239 20.1677C155.614 20.7888 156.136 21.0993 156.81 21.0993C157.471 21.0993 157.991 20.7838 158.365 20.1512C158.684 19.6275 158.845 19.0064 158.845 18.2879Z" fill="white"/>
<path d="M169.948 22.1891H168.218V17.7291C168.218 16.3548 167.696 15.6676 166.647 15.6676C166.134 15.6676 165.719 15.8559 165.399 16.2342C165.078 16.6125 164.918 17.0585 164.918 17.5689V22.1875H163.185V16.6273C163.185 15.9435 163.165 15.2018 163.124 14.399H164.644L164.725 15.6164H164.773C164.976 15.2381 165.276 14.9259 165.67 14.6765C166.14 14.3858 166.664 14.2388 167.24 14.2388C167.966 14.2388 168.57 14.4733 169.051 14.9441C169.65 15.5206 169.948 16.3812 169.948 17.5243V22.1891Z" fill="white"/>
<path d="M181.598 15.6994H179.692V19.4821C179.692 20.4435 180.03 20.9242 180.701 20.9242C181.012 20.9242 181.269 20.8977 181.472 20.8432L181.517 22.1564C181.175 22.2853 180.726 22.3497 180.172 22.3497C179.489 22.3497 178.957 22.1416 178.572 21.7253C178.185 21.309 177.994 20.6087 177.994 19.6258V15.6994H176.855V14.4027H177.994V12.9755L179.69 12.4634V14.401H181.596V15.6994H181.598Z" fill="white"/>
<path d="M190.763 22.1894H189.03V17.7624C189.03 16.3666 188.508 15.6679 187.462 15.6679C186.659 15.6679 186.111 16.0726 185.81 16.882C185.759 17.0521 185.729 17.2602 185.729 17.5047V22.1877H184V10.8296H185.729V15.5225H185.763C186.308 14.6685 187.089 14.2423 188.102 14.2423C188.818 14.2423 189.411 14.4769 189.882 14.9477C190.469 15.5341 190.763 16.4062 190.763 17.5592V22.1894Z" fill="white"/>
<path d="M200.216 17.9275C200.216 18.238 200.193 18.499 200.151 18.7121H194.96C194.983 19.4819 195.231 20.0683 195.711 20.4747C196.151 20.8381 196.717 21.0198 197.411 21.0198C198.179 21.0198 198.88 20.8975 199.511 20.6514L199.781 21.8539C199.043 22.1744 198.174 22.3346 197.168 22.3346C195.962 22.3346 195.013 21.9795 194.325 21.2692C193.635 20.5589 193.293 19.6058 193.293 18.4098C193.293 17.2354 193.612 16.2575 194.254 15.4778C194.925 14.6453 195.832 14.229 196.977 14.229C198.097 14.229 198.947 14.6453 199.522 15.4778C199.986 16.1385 200.216 16.9562 200.216 17.9275ZM198.564 17.4798C198.577 16.9661 198.463 16.5234 198.229 16.1501C197.928 15.6694 197.471 15.4282 196.851 15.4282C196.286 15.4282 195.825 15.6628 195.473 16.1336C195.186 16.5086 195.016 16.9562 194.96 17.4798H198.564Z" fill="white"/>
</svg>
