<svg width="24" height="25" viewBox="0 0 24 25" fill="" xmlns="http://www.w3.org/2000/svg">
<path d="M17.45 23.3496C16.32 23.3496 15.13 23.0796 13.9 22.5596C12.7 22.0496 11.49 21.3496 10.31 20.4996C9.14 19.6396 8.01 18.6796 6.94 17.6296C5.88 16.5596 4.92 15.4296 4.07 14.2696C3.21 13.0696 2.52 11.8696 2.03 10.7096C1.51 9.46961 1.25 8.26961 1.25 7.13961C1.25 6.35961 1.39 5.61961 1.66 4.92961C1.94 4.21961 2.39 3.55961 3 2.98961C3.77 2.22961 4.65 1.84961 5.59 1.84961C5.98 1.84961 6.38 1.93961 6.72 2.09961C7.11 2.27961 7.44 2.54961 7.68 2.90961L10 6.17961C10.21 6.46961 10.37 6.74961 10.48 7.02961C10.61 7.32961 10.68 7.62961 10.68 7.91961C10.68 8.29961 10.57 8.66961 10.36 9.01961C10.21 9.28961 9.98 9.57961 9.69 9.86961L9.01 10.5796C9.02 10.6096 9.03 10.6296 9.04 10.6496C9.16 10.8596 9.4 11.2196 9.86 11.7596C10.35 12.3196 10.81 12.8296 11.27 13.2996C11.86 13.8796 12.35 14.3396 12.81 14.7196C13.38 15.1996 13.75 15.4396 13.97 15.5496L13.95 15.5996L14.68 14.8796C14.99 14.5696 15.29 14.3396 15.58 14.1896C16.13 13.8496 16.83 13.7896 17.53 14.0796C17.79 14.1896 18.07 14.3396 18.37 14.5496L21.69 16.9096C22.06 17.1596 22.33 17.4796 22.49 17.8596C22.64 18.2396 22.71 18.5896 22.71 18.9396C22.71 19.4196 22.6 19.8996 22.39 20.3496C22.18 20.7996 21.92 21.1896 21.59 21.5496C21.02 22.1796 20.4 22.6296 19.68 22.9196C18.99 23.1996 18.24 23.3496 17.45 23.3496ZM5.59 3.34961C5.04 3.34961 4.53 3.58961 4.04 4.06961C3.58 4.49961 3.26 4.96961 3.06 5.47961C2.85 5.99961 2.75 6.54961 2.75 7.13961C2.75 8.06961 2.97 9.07961 3.41 10.1196C3.86 11.1796 4.49 12.2796 5.29 13.3796C6.09 14.4796 7 15.5496 8 16.5596C9 17.5496 10.08 18.4696 11.19 19.2796C12.27 20.0696 13.38 20.7096 14.48 21.1696C16.19 21.8996 17.79 22.0696 19.11 21.5196C19.62 21.3096 20.07 20.9896 20.48 20.5296C20.71 20.2796 20.89 20.0096 21.04 19.6896C21.16 19.4396 21.22 19.1796 21.22 18.9196C21.22 18.7596 21.19 18.5996 21.11 18.4196C21.08 18.3596 21.02 18.2496 20.83 18.1196L17.51 15.7596C17.31 15.6196 17.13 15.5196 16.96 15.4496C16.74 15.3596 16.65 15.2696 16.31 15.4796C16.11 15.5796 15.93 15.7296 15.73 15.9296L14.97 16.6796C14.58 17.0596 13.98 17.1496 13.52 16.9796L13.25 16.8596C12.84 16.6396 12.36 16.2996 11.83 15.8496C11.35 15.4396 10.83 14.9596 10.2 14.3396C9.71 13.8396 9.22 13.3096 8.71 12.7196C8.24 12.1696 7.9 11.6996 7.69 11.3096L7.57 11.0096C7.51 10.7796 7.49 10.6496 7.49 10.5096C7.49 10.1496 7.62 9.82961 7.87 9.57961L8.62 8.79961C8.82 8.59961 8.97 8.40961 9.07 8.23961C9.15 8.10961 9.18 7.99961 9.18 7.89961C9.18 7.81961 9.15 7.69961 9.1 7.57961C9.03 7.41961 8.92 7.23961 8.78 7.04961L6.46 3.76961C6.36 3.62961 6.24 3.52961 6.09 3.45961C5.93 3.38961 5.76 3.34961 5.59 3.34961ZM13.95 15.6096L13.79 16.2896L14.06 15.5896C14.01 15.5796 13.97 15.5896 13.95 15.6096Z" fill="#0CAE18"/>
</svg>
