<svg width="36" height="36" viewBox="0 0 36 36" fill="none" xmlns="http://www.w3.org/2000/svg">
<rect width="36" height="36" rx="18" fill="#0CAE18"/>
<path d="M22.2105 14.3159C23.8855 14.3159 25.492 14.9813 26.6764 16.1658C27.8609 17.3502 28.5263 18.9567 28.5263 20.6317V28.0001H24.3157V20.6317C24.3157 20.0734 24.0939 19.5379 23.6991 19.1431C23.3043 18.7482 22.7688 18.5264 22.2105 18.5264C21.6521 18.5264 21.1166 18.7482 20.7218 19.1431C20.327 19.5379 20.1052 20.0734 20.1052 20.6317V28.0001H15.8947V20.6317C15.8947 18.9567 16.5601 17.3502 17.7445 16.1658C18.929 14.9813 20.5354 14.3159 22.2105 14.3159ZM7.47363 15.3685H11.6842V28.0001H7.47363V15.3685Z" stroke="white" stroke-width="2" stroke-linecap="round" stroke-linejoin="round"/>
<path d="M9.5789 12.2105C10.7416 12.2105 11.6842 11.268 11.6842 10.1053C11.6842 8.94256 10.7416 8 9.5789 8C8.41619 8 7.47363 8.94256 7.47363 10.1053C7.47363 11.268 8.41619 12.2105 9.5789 12.2105Z" stroke="white" stroke-linecap="round" stroke-linejoin="round"/>
</svg>
